G04 (created by PCBNEW-RS274X (2011-nov-30)-testing) date Wed 04 Jul 2012 05:37:31 AM PDT*
%MOIN*%
G04 Gerber Fmt 3.4, Leading zero omitted, Abs format*
%FSLAX34Y34*%
G01*
G70*
G90*
G04 APERTURE LIST*
%ADD10C,0.006*%
%ADD11R,0.06X0.06*%
%ADD12C,0.06*%
%ADD13C,0.1969*%
%ADD14C,0.0197*%
%ADD15C,0.035*%
%ADD16C,0.01*%
G04 APERTURE END LIST*
G54D10*
G54D11*
X5300Y-200D03*
G54D12*
X4300Y-200D03*
X5300Y800D03*
X4300Y800D03*
X5300Y1800D03*
X4300Y1800D03*
G54D13*
X7250Y18650D03*
G54D14*
X7250Y19477D03*
X7250Y17823D03*
X7959Y19083D03*
X7959Y18217D03*
X6541Y18217D03*
X6541Y19083D03*
G54D13*
X-1250Y18650D03*
G54D14*
X-1250Y19477D03*
X-1250Y17823D03*
X-541Y19083D03*
X-541Y18217D03*
X-1959Y18217D03*
X-1959Y19083D03*
G54D13*
X-1250Y650D03*
G54D14*
X-1250Y1477D03*
X-1250Y-177D03*
X-541Y1083D03*
X-541Y217D03*
X-1959Y217D03*
X-1959Y1083D03*
G54D13*
X7250Y650D03*
G54D14*
X7250Y1477D03*
X7250Y-177D03*
X7959Y1083D03*
X7959Y217D03*
X6541Y217D03*
X6541Y1083D03*
G54D15*
X6000Y2400D03*
X2200Y6600D03*
X0Y4200D03*
X1600Y-200D03*
X800Y1800D03*
X-1400Y8000D03*
X3400Y10400D03*
X-400Y14200D03*
X-800Y9400D03*
X0Y9000D03*
X6600Y16400D03*
X-1600Y8800D03*
X6200Y7600D03*
X5800Y13200D03*
X1200Y17000D03*
X1400Y11200D03*
X2400Y2400D03*
X-200Y3000D03*
X6600Y12600D03*
X6600Y10600D03*
X2800Y13800D03*
X2600Y15000D03*
X4200Y14200D03*
G54D16*
X6000Y2800D02*
X6000Y2400D01*
X2200Y6600D02*
X6000Y2800D01*
X5300Y2500D02*
X5300Y1800D01*
X4800Y3000D02*
X5300Y2500D01*
X1200Y3000D02*
X4800Y3000D01*
X0Y4200D02*
X1200Y3000D01*
X5300Y800D02*
X5400Y800D01*
X2200Y-800D02*
X1600Y-200D01*
X5800Y-800D02*
X2200Y-800D01*
X6000Y-600D02*
X5800Y-800D01*
X6000Y200D02*
X6000Y-600D01*
X5400Y800D02*
X6000Y200D01*
X4300Y800D02*
X1800Y800D01*
X1800Y800D02*
X800Y1800D01*
X-1400Y7400D02*
X-1400Y8000D01*
X-1200Y7200D02*
X-1400Y7400D01*
X3000Y7200D02*
X-1200Y7200D01*
X3200Y7400D02*
X3000Y7200D01*
X3200Y10200D02*
X3200Y7400D01*
X3400Y10400D02*
X3200Y10200D01*
X-400Y9800D02*
X-400Y14200D01*
X-800Y9400D02*
X-400Y9800D01*
X0Y9000D02*
X200Y9200D01*
X200Y9200D02*
X200Y17200D01*
X200Y17200D02*
X1200Y18200D01*
X1200Y18200D02*
X4800Y18200D01*
X4800Y18200D02*
X6600Y16400D01*
X1400Y9400D02*
X1400Y11200D01*
X400Y8400D02*
X1400Y9400D01*
X-1200Y8400D02*
X400Y8400D01*
X-1600Y8800D02*
X-1200Y8400D01*
X5800Y13200D02*
X5800Y8000D01*
X5800Y8000D02*
X6200Y7600D01*
X5800Y13200D02*
X4000Y13200D01*
X4000Y13200D02*
X1400Y13200D01*
X1200Y17000D02*
X1400Y16800D01*
X1400Y16800D02*
X1400Y13200D01*
X1400Y13200D02*
X1400Y11200D01*
X400Y2400D02*
X2400Y2400D01*
X-200Y3000D02*
X400Y2400D01*
X6600Y10600D02*
X6600Y12600D01*
X3200Y14200D02*
X3400Y14200D01*
X2800Y13800D02*
X3200Y14200D01*
X2600Y15000D02*
X3400Y14200D01*
X3400Y14200D02*
X4200Y14200D01*
M02*
