M48
;DRILL file {Pcbnew (2011-nov-30)-testing} date Wed 04 Jul 2012 05:37:35 AM PDT
;FORMAT={-:-/ absolute / inch / decimal}
FMAT,2
INCH,TZ
T1C0.020
T2C0.025
T3C0.040
T4C0.138
%
G90
G05
M72
T1
X-0.196Y-1.908
X-0.196Y-1.822
X-0.196Y-0.108
X-0.196Y-0.022
X-0.125Y-1.948
X-0.125Y-1.782
X-0.125Y-0.148
X-0.125Y0.018
X-0.054Y-1.908
X-0.054Y-1.822
X-0.054Y-0.108
X-0.054Y-0.022
X0.654Y-1.908
X0.654Y-1.822
X0.654Y-0.108
X0.654Y-0.022
X0.725Y-1.948
X0.725Y-1.782
X0.725Y-0.148
X0.725Y0.018
X0.796Y-1.908
X0.796Y-1.822
X0.796Y-0.108
X0.796Y-0.022
T2
X-0.160Y-0.880
X-0.140Y-0.800
X-0.080Y-0.940
X-0.040Y-1.420
X-0.020Y-0.300
X0.000Y-0.900
X0.000Y-0.420
X0.080Y-0.180
X0.120Y-1.700
X0.140Y-1.120
X0.160Y0.020
X0.220Y-0.660
X0.240Y-0.240
X0.260Y-1.500
X0.280Y-1.380
X0.340Y-1.040
X0.420Y-1.420
X0.580Y-1.320
X0.600Y-0.240
X0.620Y-0.760
X0.660Y-1.640
X0.660Y-1.260
X0.660Y-1.060
T3
X0.430Y-0.180
X0.430Y-0.080
X0.430Y0.020
X0.530Y-0.180
X0.530Y-0.080
X0.530Y0.020
T4
X-0.125Y-1.865
X-0.125Y-0.065
X0.725Y-1.865
X0.725Y-0.065
T0
M30
