G04 (created by PCBNEW-RS274X (2011-nov-30)-testing) date Wed 04 Jul 2012 05:37:31 AM PDT*
%MOIN*%
G04 Gerber Fmt 3.4, Leading zero omitted, Abs format*
%FSLAX34Y34*%
G01*
G70*
G90*
G04 APERTURE LIST*
%ADD10C,0.006*%
%ADD11R,0.0393X0.0551*%
%ADD12R,0.0472X0.0196*%
%ADD13R,0.0472X0.0314*%
%ADD14R,0.02X0.045*%
%ADD15R,0.06X0.06*%
%ADD16C,0.06*%
%ADD17C,0.1969*%
%ADD18C,0.0197*%
%ADD19R,0.0394X0.0787*%
%ADD20C,0.035*%
%ADD21C,0.01*%
G04 APERTURE END LIST*
G54D10*
G54D11*
X6124Y6583D03*
X5376Y6583D03*
X5750Y5717D03*
G54D12*
X2778Y12388D03*
X2778Y11896D03*
X2778Y11404D03*
X2778Y10912D03*
X3722Y10912D03*
X3722Y11404D03*
X3722Y11896D03*
X3722Y12388D03*
G54D10*
G36*
X1908Y15443D02*
X2078Y15345D01*
X1842Y14937D01*
X1672Y15035D01*
X1908Y15443D01*
X1908Y15443D01*
G37*
G36*
X1482Y15689D02*
X1652Y15591D01*
X1416Y15183D01*
X1246Y15281D01*
X1482Y15689D01*
X1482Y15689D01*
G37*
G36*
X1056Y15935D02*
X1226Y15837D01*
X990Y15429D01*
X820Y15527D01*
X1056Y15935D01*
X1056Y15935D01*
G37*
G36*
X630Y16181D02*
X800Y16083D01*
X564Y15675D01*
X394Y15773D01*
X630Y16181D01*
X630Y16181D01*
G37*
G36*
X158Y15363D02*
X328Y15265D01*
X92Y14857D01*
X-78Y14955D01*
X158Y15363D01*
X158Y15363D01*
G37*
G36*
X584Y15117D02*
X754Y15019D01*
X518Y14611D01*
X348Y14709D01*
X584Y15117D01*
X584Y15117D01*
G37*
G36*
X1010Y14871D02*
X1180Y14773D01*
X944Y14365D01*
X774Y14463D01*
X1010Y14871D01*
X1010Y14871D01*
G37*
G36*
X1436Y14625D02*
X1606Y14527D01*
X1370Y14119D01*
X1200Y14217D01*
X1436Y14625D01*
X1436Y14625D01*
G37*
G36*
X5050Y14217D02*
X4880Y14119D01*
X4644Y14527D01*
X4814Y14625D01*
X5050Y14217D01*
X5050Y14217D01*
G37*
G36*
X5476Y14463D02*
X5306Y14365D01*
X5070Y14773D01*
X5240Y14871D01*
X5476Y14463D01*
X5476Y14463D01*
G37*
G36*
X5902Y14709D02*
X5732Y14611D01*
X5496Y15019D01*
X5666Y15117D01*
X5902Y14709D01*
X5902Y14709D01*
G37*
G36*
X6328Y14955D02*
X6158Y14857D01*
X5922Y15265D01*
X6092Y15363D01*
X6328Y14955D01*
X6328Y14955D01*
G37*
G36*
X5856Y15773D02*
X5686Y15675D01*
X5450Y16083D01*
X5620Y16181D01*
X5856Y15773D01*
X5856Y15773D01*
G37*
G36*
X5430Y15527D02*
X5260Y15429D01*
X5024Y15837D01*
X5194Y15935D01*
X5430Y15527D01*
X5430Y15527D01*
G37*
G36*
X5004Y15281D02*
X4834Y15183D01*
X4598Y15591D01*
X4768Y15689D01*
X5004Y15281D01*
X5004Y15281D01*
G37*
G36*
X4578Y15035D02*
X4408Y14937D01*
X4172Y15345D01*
X4342Y15443D01*
X4578Y15035D01*
X4578Y15035D01*
G37*
G36*
X1039Y16251D02*
X1275Y16660D01*
X1547Y16503D01*
X1311Y16094D01*
X1039Y16251D01*
X1039Y16251D01*
G37*
G36*
X1653Y15897D02*
X1889Y16306D01*
X2161Y16149D01*
X1925Y15740D01*
X1653Y15897D01*
X1653Y15897D01*
G37*
G54D13*
X2000Y11246D03*
X2000Y11954D03*
G54D10*
G36*
X6125Y14460D02*
X6361Y14051D01*
X6089Y13894D01*
X5853Y14303D01*
X6125Y14460D01*
X6125Y14460D01*
G37*
G36*
X5511Y14106D02*
X5747Y13697D01*
X5475Y13540D01*
X5239Y13949D01*
X5511Y14106D01*
X5511Y14106D01*
G37*
G54D14*
X-1750Y5050D03*
X-1250Y5050D03*
X-750Y5050D03*
X-250Y5050D03*
X250Y5050D03*
X750Y5050D03*
X1250Y5050D03*
X1250Y7150D03*
X750Y7150D03*
X250Y7150D03*
X-250Y7150D03*
X-750Y7150D03*
X-1250Y7150D03*
X-1750Y7150D03*
G54D15*
X5300Y-200D03*
G54D16*
X4300Y-200D03*
X5300Y800D03*
X4300Y800D03*
X5300Y1800D03*
X4300Y1800D03*
G54D17*
X7250Y18650D03*
G54D18*
X7250Y19477D03*
X7250Y17823D03*
X7959Y19083D03*
X7959Y18217D03*
X6541Y18217D03*
X6541Y19083D03*
G54D17*
X-1250Y18650D03*
G54D18*
X-1250Y19477D03*
X-1250Y17823D03*
X-541Y19083D03*
X-541Y18217D03*
X-1959Y18217D03*
X-1959Y19083D03*
G54D17*
X-1250Y650D03*
G54D18*
X-1250Y1477D03*
X-1250Y-177D03*
X-541Y1083D03*
X-541Y217D03*
X-1959Y217D03*
X-1959Y1083D03*
G54D17*
X7250Y650D03*
G54D18*
X7250Y1477D03*
X7250Y-177D03*
X7959Y1083D03*
X7959Y217D03*
X6541Y217D03*
X6541Y1083D03*
G54D19*
X2394Y600D03*
X1606Y600D03*
X819Y600D03*
X3181Y600D03*
G54D20*
X6000Y2400D03*
X2200Y6600D03*
X0Y4200D03*
X1600Y-200D03*
X800Y1800D03*
X-1400Y8000D03*
X3400Y10400D03*
X-400Y14200D03*
X-800Y9400D03*
X0Y9000D03*
X6600Y16400D03*
X-1600Y8800D03*
X6200Y7600D03*
X5800Y13200D03*
X1200Y17000D03*
X1400Y11200D03*
X2400Y2400D03*
X-200Y3000D03*
X6600Y12600D03*
X6600Y10600D03*
X2800Y13800D03*
X2600Y15000D03*
X4200Y14200D03*
G54D21*
X1250Y7150D02*
X1650Y7150D01*
X6000Y-200D02*
X5300Y-200D01*
X6000Y2400D02*
X6000Y-200D01*
X1650Y7150D02*
X2200Y6600D01*
X-250Y5050D02*
X-250Y4450D01*
X-250Y4450D02*
X0Y4200D01*
X1600Y-200D02*
X1606Y-194D01*
X1606Y600D02*
X1606Y-194D01*
X-1000Y10000D02*
X-1000Y11000D01*
X-2400Y8600D02*
X-1000Y10000D01*
X-2400Y4400D02*
X-2400Y8600D01*
X200Y1800D02*
X-2400Y4400D01*
X200Y-200D02*
X200Y1800D01*
X1600Y-200D02*
X200Y-200D01*
X1606Y-194D02*
X1600Y-200D01*
X750Y7150D02*
X750Y9250D01*
X3200Y16400D02*
X3200Y14372D01*
X2400Y17800D02*
X3200Y16400D01*
X200Y17800D02*
X2400Y17800D01*
X-1000Y16000D02*
X200Y17800D01*
X-1000Y11000D02*
X-1000Y16000D01*
X750Y9250D02*
X-1000Y11000D01*
X3722Y12388D02*
X3722Y14207D01*
X3722Y14207D02*
X3557Y14372D01*
X1403Y14372D02*
X3200Y14372D01*
X3200Y14372D02*
X3557Y14372D01*
X3557Y14372D02*
X4375Y15190D01*
X800Y1800D02*
X819Y1800D01*
X1250Y5050D02*
X1250Y4050D01*
X819Y3619D02*
X819Y1800D01*
X819Y1800D02*
X819Y600D01*
X1250Y4050D02*
X819Y3619D01*
X4801Y15436D02*
X4801Y15599D01*
X6800Y11800D02*
X4800Y11800D01*
X8000Y13000D02*
X6800Y11800D01*
X8000Y16000D02*
X8000Y13000D01*
X6800Y17200D02*
X8000Y16000D01*
X4800Y17200D02*
X6800Y17200D01*
X4400Y16800D02*
X4800Y17200D01*
X4400Y16000D02*
X4400Y16800D01*
X4801Y15599D02*
X4400Y16000D01*
X2600Y10000D02*
X2600Y6400D01*
X2600Y6400D02*
X1250Y5050D01*
X977Y14618D02*
X977Y14577D01*
X4704Y11896D02*
X3722Y11896D01*
X4800Y11800D02*
X4704Y11896D01*
X4800Y10600D02*
X4800Y11800D01*
X4200Y10000D02*
X4800Y10600D01*
X1600Y10000D02*
X2600Y10000D01*
X2600Y10000D02*
X4200Y10000D01*
X200Y10600D02*
X1600Y10000D01*
X200Y13800D02*
X200Y10600D01*
X977Y14577D02*
X200Y13800D01*
X3722Y10912D02*
X3722Y10722D01*
X-1250Y7850D02*
X-1250Y7150D01*
X-1400Y8000D02*
X-1250Y7850D01*
X3722Y10722D02*
X3400Y10400D01*
X-750Y7150D02*
X-750Y9350D01*
X110Y15110D02*
X125Y15110D01*
X-400Y14600D02*
X110Y15110D01*
X-400Y14200D02*
X-400Y14600D01*
X-750Y9350D02*
X-800Y9400D01*
X5800Y16000D02*
X5725Y16000D01*
X-250Y8750D02*
X0Y9000D01*
X6600Y16400D02*
X6200Y16000D01*
X6200Y16000D02*
X5800Y16000D01*
X-250Y7150D02*
X-250Y8750D01*
X5725Y16000D02*
X5653Y15928D01*
X-1750Y7150D02*
X-1750Y7350D01*
X-2000Y8400D02*
X-1600Y8800D01*
X-2000Y7600D02*
X-2000Y8400D01*
X-1750Y7350D02*
X-2000Y7600D01*
X6124Y7524D02*
X6124Y6583D01*
X6200Y7600D02*
X6124Y7524D01*
X3181Y600D02*
X3181Y1181D01*
X3800Y1800D02*
X4300Y1800D01*
X3181Y1181D02*
X3800Y1800D01*
X6107Y14177D02*
X6107Y13507D01*
X6107Y13507D02*
X5800Y13200D01*
X1293Y16377D02*
X1293Y16907D01*
X1293Y16907D02*
X1200Y17000D01*
X1446Y11246D02*
X2000Y11246D01*
X1400Y11200D02*
X1446Y11246D01*
X2000Y11246D02*
X2620Y11246D01*
X2620Y11246D02*
X2778Y11404D01*
X6107Y14177D02*
X6107Y14456D01*
X6107Y14456D02*
X5699Y14864D01*
X1023Y15682D02*
X1023Y15823D01*
X1293Y16093D02*
X1293Y16377D01*
X1023Y15823D02*
X1293Y16093D01*
X-1750Y7150D02*
X-1750Y6750D01*
X-750Y5750D02*
X-750Y5050D01*
X-1750Y6750D02*
X-750Y5750D01*
X-750Y5050D02*
X-750Y5450D01*
X200Y5600D02*
X750Y5050D01*
X-600Y5600D02*
X200Y5600D01*
X-750Y5450D02*
X-600Y5600D01*
X250Y5050D02*
X750Y5050D01*
X4300Y1800D02*
X4400Y2600D01*
X4400Y2600D02*
X6400Y4800D01*
X6400Y4800D02*
X6400Y6307D01*
X6400Y6307D02*
X6124Y6583D01*
X5493Y13823D02*
X5493Y14398D01*
X5493Y14398D02*
X5273Y14618D01*
X1449Y15436D02*
X1449Y15565D01*
X1449Y15565D02*
X1907Y16023D01*
X2000Y11954D02*
X2720Y11954D01*
X2720Y11954D02*
X2778Y11896D01*
X-1750Y5050D02*
X-1750Y4550D01*
X-1750Y4550D02*
X-200Y3000D01*
X2400Y2400D02*
X2394Y2400D01*
X2394Y2400D02*
X2400Y2400D01*
X2400Y2400D02*
X2394Y2400D01*
X5376Y6583D02*
X5376Y8776D01*
X6600Y12600D02*
X6600Y13200D01*
X6600Y10000D02*
X6600Y10600D01*
X5376Y8776D02*
X6600Y10000D01*
X2400Y12800D02*
X2400Y13400D01*
X2400Y13400D02*
X2800Y13800D01*
X1875Y15190D02*
X2410Y15190D01*
X2410Y15190D02*
X2600Y15000D01*
X4372Y14372D02*
X4847Y14372D01*
X4200Y14200D02*
X4372Y14372D01*
X2394Y600D02*
X2394Y2400D01*
X2394Y2400D02*
X2394Y3601D01*
X2394Y3601D02*
X5376Y6583D01*
X2394Y600D02*
X2394Y6D01*
X2600Y-200D02*
X4300Y-200D01*
X2394Y6D02*
X2600Y-200D01*
X2778Y12388D02*
X2778Y12422D01*
X2778Y10822D02*
X2778Y10912D01*
X2800Y10800D02*
X2778Y10822D01*
X800Y10800D02*
X2800Y10800D01*
X800Y12800D02*
X800Y10800D01*
X1000Y12800D02*
X800Y12800D01*
X2400Y12800D02*
X1000Y12800D01*
X2778Y12422D02*
X2400Y12800D01*
X1875Y15190D02*
X1875Y15275D01*
X72Y15928D02*
X597Y15928D01*
X-200Y16200D02*
X72Y15928D01*
X-200Y16600D02*
X-200Y16200D01*
X600Y17400D02*
X-200Y16600D01*
X1800Y17400D02*
X600Y17400D01*
X2600Y16600D02*
X1800Y17400D01*
X2600Y16000D02*
X2600Y16600D01*
X1875Y15275D02*
X2600Y16000D01*
X6125Y15110D02*
X6490Y15110D01*
X6490Y15110D02*
X7200Y14400D01*
X7200Y14400D02*
X7200Y13800D01*
X7200Y13800D02*
X6600Y13200D01*
X6000Y12600D02*
X5400Y12600D01*
X5400Y12600D02*
X4847Y13153D01*
X4847Y13153D02*
X4847Y14372D01*
X6600Y13200D02*
X6000Y12600D01*
M02*
